<?xml version="1.0" encoding="UTF-8" standalone="no"?>
<svg width="178px" height="33px" viewBox="0 0 178 33" version="1.1" xmlns="http://www.w3.org/2000/svg" xmlns:xlink="http://www.w3.org/1999/xlink" xmlns:sketch="http://www.bohemiancoding.com/sketch/ns">
    <!-- Generator: Sketch 3.3.2 (12043) - http://www.bohemiancoding.com/sketch -->
    <title>v-2 :: blue copy</title>
    <desc>Created with Sketch.</desc>
    <defs></defs>
    <g id="Page-1" stroke="none" stroke-width="1" fill="none" fill-rule="evenodd" sketch:type="MSPage">
        <g id="LOGO" sketch:type="MSArtboardGroup" transform="translate(-705.000000, -261.000000)" fill="#89B6E9">
            <g id="v-2-::-blue-copy" sketch:type="MSLayerGroup" transform="translate(705.000000, 261.000000)">
                <path d="M20.3636364,3.81818182 C18.7569545,3.81818182 17.4545455,5.12059091 17.4545455,6.72727273 C17.4545455,8.33395455 18.7569545,9.63636364 20.3636364,9.63636364 C21.9703182,9.63636364 23.2727273,8.33395455 23.2727273,6.72727273 C23.2727273,5.12059091 21.9703182,3.81818182 20.3636364,3.81818182 L20.3636364,3.81818182 Z M5.81818182,9.63636364 C4.2115,9.63636364 2.90909091,10.9387727 2.90909091,12.5454545 C2.90909091,14.1521364 4.2115,15.4545455 5.81818182,15.4545455 L5.81818182,18.3636364 C2.60490909,18.3636364 0,15.7587273 0,12.5455 C0,9.33218182 2.60490909,6.72727273 5.81818182,6.72727273 C9.03145455,6.72727273 11.6363636,9.33213636 11.6363636,12.5454545 L8.72727273,12.5454545 C8.72727273,10.9387727 7.42486364,9.63636364 5.81818182,9.63636364 L5.81818182,9.63636364 Z M20.3636364,27.0909091 L14.5454545,27.0909091 L14.5454545,21.2727273 L20.3636364,21.2727273 L20.3636364,27.0909091 L20.3636364,27.0909091 Z M26.1818182,22.1266818 C24.6579091,20.6018182 22.9874545,18.9304545 22.8466818,18.7896818 C22.5835,18.5264545 22.2198636,18.3636364 21.8181818,18.3636364 L13.0909091,18.3636364 C12.2875455,18.3636364 11.6363636,19.0148182 11.6363636,19.8181818 L11.6363636,28.5454545 C11.6363636,28.9240455 11.7810455,29.2688636 12.018,29.5275909 C12.0420909,29.5539545 13.7963182,31.3077727 15.4002273,32.9090909 L10.1818182,32.9090909 C9.37845455,32.9090909 8.72727273,32.2579091 8.72727273,31.4545455 L8.72727273,16.9090909 C8.72727273,16.1057273 9.37845455,15.4545455 10.1818182,15.4545455 L24.7272727,15.4545455 C25.5306364,15.4545455 26.1818182,16.1057273 26.1818182,16.9090909 L26.1818182,22.1266818 L26.1818182,22.1266818 Z M20.3636364,12.5454545 C17.1503636,12.5454545 14.5454545,9.94054545 14.5454545,6.72731818 C14.5454545,3.514 17.1503636,0.909090909 20.3636364,0.909090909 C23.5769091,0.909090909 26.1818182,3.514 26.1818182,6.72731818 C26.1818182,9.94054545 23.5769091,12.5454545 20.3636364,12.5454545 L20.3636364,12.5454545 Z M34.9090909,27.0909091 L32,24.1818182 L32.0037273,18.3598182 L34.9090909,15.4544545 L34.9090909,27.0909091 L34.9090909,27.0909091 Z" id="Shape" sketch:type="MSShapeGroup"></path>
                <text id="TEMPORADA" sketch:type="MSTextLayer" font-family="Courier" font-size="23" font-weight="normal">
                    <tspan x="53.1558442" y="27">TEMPORADA</tspan>
                </text>
            </g>
        </g>
    </g>
</svg>